<svg width="295" height="87" viewBox="0 0 295 87" fill="none" xmlns="http://www.w3.org/2000/svg">
<path fill-rule="evenodd" clip-rule="evenodd" d="M283.552 87H10.91C4.89704 87 0 82.0968 0 76.125V10.875C0 4.88155 4.89704 0 10.91 0H283.552C289.559 0 294.462 4.88155 294.462 10.875V76.125C294.462 82.0968 289.559 87 283.552 87Z" fill="#1B1F23"/>
<path d="M155.123 28.7794C153.157 28.7794 151.499 28.0906 150.188 26.7346C148.888 25.4166 148.162 23.5996 148.195 21.7446C148.195 19.7648 148.867 18.0888 150.188 16.76C151.494 15.404 153.152 14.7151 155.118 14.7151C157.063 14.7151 158.72 15.404 160.053 16.76C161.375 18.1322 162.046 19.8082 162.046 21.7446C162.025 23.7297 161.353 25.4057 160.053 26.7292C158.747 28.096 157.09 28.7794 155.123 28.7794ZM96.6136 28.7794C94.6905 28.7794 93.0221 28.1014 91.657 26.7617C90.3027 25.4274 89.6147 23.7406 89.6147 21.75C89.6147 19.7594 90.3027 18.0726 91.657 16.7383C92.995 15.3986 94.6635 14.7206 96.6136 14.7206C97.567 14.7206 98.4933 14.9104 99.3817 15.2955C100.254 15.6697 100.964 16.1796 101.489 16.8034L101.619 16.9606L100.151 18.4034L99.9993 18.2244C99.1705 17.2373 98.06 16.7545 96.5919 16.7545C95.281 16.7545 94.138 17.221 93.1954 18.1431C92.2474 19.0706 91.7653 20.2855 91.7653 21.7554C91.7653 23.2253 92.2474 24.4403 93.1954 25.3678C94.138 26.2898 95.281 26.7563 96.5919 26.7563C97.9895 26.7563 99.165 26.2898 100.081 25.3678C100.622 24.8254 100.958 24.066 101.077 23.106H96.3698V21.0774H103.098L103.125 21.2618C103.174 21.6035 103.222 21.9561 103.222 22.2815C103.222 24.1528 102.659 25.6661 101.543 26.7834C100.276 28.1068 98.6179 28.7794 96.6136 28.7794ZM174.408 28.4919H172.333L165.979 18.3112L166.033 20.1445V28.4865H163.959V15.008H166.326L166.391 15.1111L172.366 24.7006L172.312 22.8727V15.008H174.408V28.4919ZM139.533 28.4919H137.431V17.0366H133.786V15.008H143.173V17.0366H139.528V28.4919H139.533ZM132.074 28.4919H129.977V15.008H132.074V28.4919ZM120.292 28.4919H118.195V17.0366H114.55V15.008H123.937V17.0366H120.292V28.4919ZM113.222 28.4703H105.183V15.008H113.222V17.0366H107.285V20.7357H112.643V22.7426H107.285V26.4417H113.222V28.4703ZM151.727 25.3406C152.664 26.279 153.802 26.7509 155.123 26.7509C156.483 26.7509 157.594 26.2898 158.52 25.3406C159.441 24.4186 159.907 23.209 159.907 21.75C159.907 20.2909 159.441 19.076 158.525 18.1593C157.588 17.221 156.445 16.7491 155.129 16.7491C153.769 16.7491 152.659 17.2101 151.738 18.1593C150.817 19.0814 150.351 20.2909 150.351 21.75C150.351 23.209 150.811 24.424 151.727 25.3406Z" fill="white"/>
<path fill-rule="evenodd" clip-rule="evenodd" d="M148 47.3184C142.881 47.3184 138.731 51.2074 138.731 56.5717C138.731 61.8872 142.908 65.8249 148 65.8249C153.119 65.8249 157.269 61.9088 157.269 56.5717C157.269 51.2074 153.119 47.3184 148 47.3184ZM148 62.1583C145.199 62.1583 142.789 59.8369 142.789 56.55C142.789 53.2143 145.205 50.9416 148 50.9416C150.801 50.9416 153.211 53.2143 153.211 56.55C153.217 59.8586 150.801 62.1583 148 62.1583ZM127.778 47.3184C122.659 47.3184 118.509 51.2074 118.509 56.5717C118.509 61.8872 122.686 65.8249 127.778 65.8249C132.897 65.8249 137.047 61.9088 137.047 56.5717C137.047 51.2074 132.892 47.3184 127.778 47.3184ZM127.778 62.1583C124.977 62.1583 122.567 59.8369 122.567 56.55C122.567 53.2143 124.983 50.9416 127.778 50.9416C130.579 50.9416 132.989 53.2143 132.989 56.55C132.989 59.8586 130.579 62.1583 127.778 62.1583ZM103.715 50.1443V54.0604H113.103C112.816 56.2571 112.09 57.8789 110.98 58.9908C109.604 60.3684 107.48 61.8655 103.737 61.8655C97.9679 61.8655 93.4554 57.2009 93.4554 51.4244C93.4554 45.6479 97.9679 40.9833 103.737 40.9833C106.852 40.9833 109.122 42.2145 110.806 43.7875L113.58 41.0104C111.24 38.7649 108.125 37.0455 103.759 37.0455C95.8444 37.0455 89.203 43.5 89.203 51.4027C89.203 59.3271 95.839 65.7598 103.759 65.7598C108.033 65.7598 111.24 64.3605 113.775 61.7244C116.359 59.1372 117.177 55.4869 117.177 52.5417C117.177 51.6251 117.106 50.8006 116.96 50.1009H103.71C103.715 50.0955 103.715 50.1443 103.715 50.1443ZM202.138 53.1926C201.364 51.1152 199.023 47.2968 194.224 47.2968C189.468 47.2968 185.513 51.0447 185.513 56.55C185.513 61.7461 189.424 65.8032 194.684 65.8032C198.91 65.8032 201.369 63.216 202.382 61.6973L199.246 59.5928C198.206 61.1386 196.759 62.1529 194.706 62.1529C192.631 62.1529 191.18 61.2092 190.215 59.3487L202.572 54.2231C202.572 54.2285 202.138 53.1926 202.138 53.1926ZM189.538 56.2842C189.441 52.7098 192.312 50.8928 194.365 50.8928C195.985 50.8928 197.333 51.6901 197.794 52.8509L189.538 56.2842ZM179.5 65.25H183.558V38.0652H179.5V65.25ZM172.837 49.3741H172.691C171.776 48.2839 170.037 47.2968 167.816 47.2968C163.206 47.2968 158.959 51.3593 158.959 56.5771C158.959 61.7732 163.184 65.787 167.816 65.787C170.01 65.787 171.776 64.7944 172.691 63.6825H172.837V65.0113C172.837 68.5423 170.952 70.4461 167.913 70.4461C165.427 70.4461 163.883 68.6562 163.255 67.1592L159.728 68.6345C160.741 71.0753 163.444 74.0964 167.908 74.0964C172.664 74.0964 176.694 71.2923 176.694 64.4527V47.85H172.859V49.3741C172.864 49.3741 172.837 49.3741 172.837 49.3741ZM168.179 62.1583C165.378 62.1583 163.038 59.8152 163.038 56.5771C163.038 53.3119 165.378 50.9471 168.179 50.9471C170.952 50.9471 173.103 53.339 173.103 56.5771C173.13 59.8152 170.958 62.1583 168.179 62.1583ZM221.136 38.0652H211.434V65.25H215.491V54.9554H221.141C225.632 54.9554 230.047 51.6956 230.047 46.5211C230.047 41.3467 225.648 38.0652 221.136 38.0652ZM221.255 51.1586H215.486V41.8294H221.255C224.294 41.8294 226.011 44.3407 226.011 46.494C226.011 48.6256 224.273 51.1586 221.255 51.1586ZM246.309 47.2696C243.362 47.2696 240.323 48.5768 239.067 51.4244L242.664 52.9214C243.438 51.4244 244.857 50.9145 246.358 50.9145C248.46 50.9145 250.583 52.1729 250.632 54.4184V54.7059C249.906 54.2936 248.314 53.6645 246.407 53.6645C242.523 53.6645 238.584 55.7906 238.584 59.7772C238.584 63.4276 241.77 65.7707 245.318 65.7707C248.043 65.7707 249.543 64.5395 250.48 63.113H250.627V65.2175H254.538V54.8035C254.538 49.9545 250.941 47.2696 246.309 47.2696ZM245.8 62.1583C244.473 62.1583 242.615 61.5075 242.615 59.8369C242.615 57.7324 244.933 56.9351 246.91 56.9351C248.698 56.9351 249.543 57.3202 250.605 57.8517C250.312 60.2925 248.254 62.1367 245.8 62.1583ZM268.806 47.85L264.148 59.6416H264.001L259.175 47.85H254.809L262.051 64.3333L257.923 73.4944H262.149L273.292 47.85H268.806ZM232.284 65.25H236.342V38.0652H232.284V65.25Z" fill="white"/>
<path fill-rule="evenodd" clip-rule="evenodd" d="M22.6651 16.3858C22.0367 17.0637 21.6737 18.0997 21.6737 19.4557V67.5498C21.6737 68.9058 22.0367 69.9417 22.6867 70.5926L22.8547 70.739L49.7667 43.7929V43.1909L22.833 16.2393L22.6651 16.3858Z" fill="url(#paint0_linear)"/>
<path fill-rule="evenodd" clip-rule="evenodd" d="M58.7211 52.8021L49.745 43.8146V43.1854L58.7211 34.1979L58.9162 34.3173L69.5336 40.3595C72.5726 42.0735 72.5726 44.9048 69.5336 46.6405L58.9162 52.6827L58.7211 52.8021Z" fill="url(#paint1_linear)"/>
<path fill-rule="evenodd" clip-rule="evenodd" d="M58.9162 52.6827L49.7451 43.5L22.6651 70.6143C23.6564 71.6774 25.3195 71.7967 27.1775 70.7607L58.9162 52.6827Z" fill="url(#paint2_linear)"/>
<path fill-rule="evenodd" clip-rule="evenodd" d="M58.9162 34.3173L27.1775 16.2664C25.3195 15.2033 23.651 15.3498 22.6651 16.4129L49.7451 43.5L58.9162 34.3173Z" fill="url(#paint3_linear)"/>
<path opacity="0.2" fill-rule="evenodd" clip-rule="evenodd" d="M58.7212 52.4875L27.1992 70.4191C25.4386 71.4333 23.8677 71.3628 22.8547 70.4407L22.6867 70.6089L22.8547 70.7553C23.8677 71.672 25.4386 71.7479 27.1992 70.7336L58.9378 52.6827L58.7212 52.4875Z" fill="#1B1F23"/>
<path opacity="0.12" fill-rule="evenodd" clip-rule="evenodd" d="M69.5336 46.3259L58.6941 52.4875L58.8891 52.6827L69.5065 46.6405C71.0287 45.7726 71.7763 44.6336 71.7763 43.5C71.6842 44.5414 70.9096 45.5286 69.5336 46.3259Z" fill="#1B1F23"/>
<path opacity="0.25" fill-rule="evenodd" clip-rule="evenodd" d="M27.1775 16.581L69.5336 40.6742C70.9096 41.4498 71.6842 42.4641 71.8034 43.5C71.8034 42.3664 71.0558 41.2274 69.5336 40.3596L27.1775 16.2664C24.1385 14.5253 21.6737 15.979 21.6737 19.4557V19.7703C21.6737 16.2881 24.1385 14.8616 27.1775 16.581Z" fill="white"/>
<defs>
<linearGradient id="paint0_linear" x1="47.3529" y1="18.938" x2="4.23733" y2="30.4117" gradientUnits="userSpaceOnUse">
<stop stop-color="#00A0FF"/>
<stop offset="0.00657" stop-color="#00A1FF"/>
<stop offset="0.2601" stop-color="#00BEFF"/>
<stop offset="0.5122" stop-color="#00D2FF"/>
<stop offset="0.7604" stop-color="#00DFFF"/>
<stop offset="1" stop-color="#00E3FF"/>
</linearGradient>
<linearGradient id="paint1_linear" x1="73.4967" y1="43.5" x2="20.9351" y2="43.5" gradientUnits="userSpaceOnUse">
<stop stop-color="#FFE000"/>
<stop offset="0.4087" stop-color="#FFBD00"/>
<stop offset="0.7754" stop-color="#FFA500"/>
<stop offset="1" stop-color="#FF9C00"/>
</linearGradient>
<linearGradient id="paint2_linear" x1="53.9271" y1="48.4954" x2="19.2549" y2="106.778" gradientUnits="userSpaceOnUse">
<stop stop-color="#FF3A44"/>
<stop offset="1" stop-color="#C31162"/>
</linearGradient>
<linearGradient id="paint3_linear" x1="15.8463" y1="0.388716" x2="31.3149" y2="26.4185" gradientUnits="userSpaceOnUse">
<stop stop-color="#32A071"/>
<stop offset="0.0685" stop-color="#2DA771"/>
<stop offset="0.4762" stop-color="#15CF74"/>
<stop offset="0.8009" stop-color="#06E775"/>
<stop offset="1" stop-color="#00F076"/>
</linearGradient>
</defs>
</svg>
