<svg width="304" height="87" viewBox="0 0 304 87" fill="none" xmlns="http://www.w3.org/2000/svg">
<path d="M303.665 78.26C303.665 83.0375 299.787 86.905 294.996 86.905H8.66963C3.87852 86.905 0 83.0375 0 78.26V8.645C0 3.8675 3.87852 0 8.66963 0H294.996C299.787 0 303.665 3.8675 303.665 8.645V78.26Z" fill="#1B1F23"/>
<path d="M66.6193 42.9974C66.6193 35.7174 72.5511 32.0774 73.0074 31.8499C69.5852 26.8449 64.1096 26.1624 62.2845 26.1624C57.7215 25.7074 53.3867 28.8924 51.1052 28.8924C48.8237 28.8924 45.1734 26.1624 41.523 26.3899C36.7319 26.3899 32.1689 29.3474 29.6593 33.6699C24.4119 42.5424 28.2904 55.7374 33.3097 63.0174C35.8193 66.6574 38.7852 70.5249 42.4356 70.2974C46.0859 70.0699 47.4548 68.0224 52.0178 68.0224C56.3526 68.0224 57.7215 70.2974 61.6 70.2974C65.4785 70.2974 67.9882 66.6574 70.4978 63.2449C73.4637 59.1499 74.6045 55.2824 74.6045 55.0549C74.3763 54.5999 66.8474 51.6424 66.6193 42.9974Z" fill="white"/>
<path d="M59.3186 21.385C61.372 18.8825 62.7409 15.47 62.2846 12.0575C59.3186 12.285 55.8964 14.105 53.6149 16.38C51.7897 18.4275 50.1927 22.0675 50.649 25.2525C54.0712 25.7075 57.2653 23.8875 59.3186 21.385Z" fill="white"/>
<path d="M120.234 69.615H114.987L112.249 60.7425H102.438L99.7007 69.615H94.6815L104.492 39.3575H110.424L120.234 69.615ZM111.564 57.1025L109.055 49.14C108.827 48.23 108.37 46.41 107.458 43.4525C107.23 44.8175 106.773 46.6375 106.089 49.14L103.351 57.1025H111.564Z" fill="white"/>
<path d="M145.558 58.4675C145.558 62.1075 144.646 65.065 142.592 67.34C140.767 69.16 138.486 70.2975 135.976 70.2975C133.01 70.2975 130.957 69.16 129.816 67.1125V78.715H125.025V55.055C125.025 52.78 125.025 50.2775 124.797 47.775H129.132L129.36 51.1875C130.957 48.685 133.467 47.32 136.661 47.32C139.17 47.32 141.452 48.23 143.049 50.2775C144.646 52.325 145.558 55.055 145.558 58.4675ZM140.539 58.695C140.539 56.6475 140.083 54.8275 139.17 53.4625C138.03 52.0975 136.661 51.415 134.835 51.415C133.695 51.415 132.554 51.87 131.641 52.5525C130.729 53.4625 130.044 54.3725 129.816 55.7375C129.588 56.42 129.588 56.875 129.588 57.1025V60.7425C129.588 62.335 130.044 63.7 130.957 64.8375C131.87 65.975 133.238 66.43 134.835 66.43C136.661 66.43 138.03 65.7475 139.17 64.3825C140.083 62.79 140.539 60.97 140.539 58.695Z" fill="white"/>
<path d="M170.655 58.4675C170.655 62.1075 169.742 65.065 167.689 67.34C165.864 69.16 163.582 70.2975 161.072 70.2975C158.107 70.2975 156.053 69.16 154.912 67.1125V78.715H150.121V55.055C150.121 52.78 150.121 50.2775 149.893 47.775H154.228L154.456 51.1875C156.053 48.685 158.563 47.32 161.757 47.32C164.267 47.32 166.548 48.23 168.145 50.2775C169.742 52.325 170.655 55.055 170.655 58.4675ZM165.635 58.695C165.635 56.6475 165.179 54.8275 164.267 53.4625C163.126 52.0975 161.757 51.415 159.932 51.415C158.791 51.415 157.65 51.87 156.738 52.5525C155.825 53.4625 155.141 54.3725 154.912 55.7375C154.684 56.42 154.684 56.875 154.684 57.1025V60.7425C154.684 62.335 155.141 63.7 156.053 64.8375C156.966 65.975 158.335 66.43 159.932 66.43C161.757 66.43 163.126 65.7475 164.267 64.3825C165.179 62.79 165.635 60.97 165.635 58.695Z" fill="white"/>
<path d="M198.717 61.1975C198.717 63.7 197.804 65.975 195.979 67.5675C193.926 69.3875 191.188 70.2975 187.766 70.2975C184.572 70.2975 181.834 69.615 180.009 68.4775L181.15 64.3825C183.203 65.7475 185.713 66.43 188.222 66.43C190.047 66.43 191.416 65.975 192.557 65.2925C193.47 64.3825 194.154 63.4725 194.154 61.88C194.154 60.7425 193.698 59.605 192.785 58.695C191.873 57.785 190.504 57.1025 188.679 56.42C183.431 54.3725 180.693 51.6425 180.693 47.775C180.693 45.2725 181.606 43.225 183.431 41.6325C185.256 40.04 187.766 39.3575 190.96 39.3575C193.698 39.3575 195.979 39.8125 197.804 40.7225L196.436 44.3625C194.61 43.4525 192.785 42.9975 190.732 42.9975C188.907 42.9975 187.766 43.4525 186.625 44.3625C185.713 45.045 185.484 45.955 185.484 47.0925C185.484 48.23 185.941 49.3675 186.853 50.05C187.766 50.7325 189.135 51.6425 191.188 52.325C193.698 53.4625 195.751 54.6 196.892 55.965C198.261 57.33 198.717 59.15 198.717 61.1975Z" fill="white"/>
<path d="M214.916 51.415H209.668V62.1075C209.668 64.8375 210.581 66.2025 212.406 66.2025C213.319 66.2025 214.003 66.2025 214.459 65.975L214.688 69.615C213.775 70.07 212.406 70.07 210.809 70.07C208.984 70.07 207.387 69.3875 206.246 68.25C205.105 67.1125 204.649 65.065 204.649 62.335V51.415H201.455V47.775H204.649V43.68L209.44 42.315V47.775H214.688C214.916 47.775 214.916 51.415 214.916 51.415Z" fill="white"/>
<path d="M239.099 58.4675C239.099 61.88 238.187 64.61 236.133 66.6575C234.08 68.9325 231.342 70.07 228.148 70.07C224.954 70.07 222.445 68.9325 220.391 66.885C218.338 64.8375 217.425 62.1075 217.425 58.9225C217.425 55.51 218.338 52.78 220.391 50.505C222.445 48.4575 224.954 47.32 228.376 47.32C231.571 47.32 234.08 48.4575 236.133 50.505C238.187 52.5525 239.099 55.2825 239.099 58.4675ZM234.08 58.695C234.08 56.6475 233.624 55.055 232.711 53.4625C231.799 51.6425 230.202 50.96 228.376 50.96C226.323 50.96 224.954 51.87 223.813 53.4625C222.901 54.8275 222.445 56.6475 222.445 58.695C222.445 60.7425 222.901 62.335 223.813 63.9275C224.954 65.7475 226.323 66.43 228.148 66.43C229.973 66.43 231.571 65.52 232.483 63.7C233.624 62.335 234.08 60.7425 234.08 58.695Z" fill="white"/>
<path d="M254.841 52.0975C254.385 52.0975 253.929 51.87 253.244 51.87C251.419 51.87 250.278 52.5525 249.366 53.9175C248.453 55.055 248.225 56.42 248.225 58.24V69.615H243.434V54.6C243.434 52.0975 243.434 49.8225 243.206 47.775H247.541L247.769 51.87H247.997C248.453 50.505 249.366 49.3675 250.507 48.4575C251.647 47.775 252.788 47.32 253.929 47.32C254.385 47.32 254.841 47.32 255.07 47.32C254.841 47.5475 254.841 52.0975 254.841 52.0975Z" fill="white"/>
<path d="M276.744 57.785C276.744 58.695 276.744 59.3775 276.515 60.06H261.914C261.914 62.1075 262.598 63.9275 263.967 65.065C265.108 65.975 266.705 66.6575 268.758 66.6575C270.812 66.6575 272.865 66.2025 274.69 65.52L275.375 68.9325C273.321 69.8425 270.812 70.2975 268.074 70.2975C264.652 70.2975 261.914 69.3875 260.089 67.34C258.264 65.2925 257.123 62.79 257.123 59.3775C257.123 56.1925 258.036 53.235 259.861 51.1875C261.686 48.9125 264.195 47.775 267.618 47.775C270.812 47.775 273.093 48.9125 274.69 51.1875C276.059 52.5525 276.744 55.055 276.744 57.785ZM271.953 56.42C271.953 55.055 271.724 53.69 271.04 52.78C270.127 51.415 268.987 50.7325 267.161 50.7325C265.564 50.7325 264.195 51.415 263.283 52.78C262.37 53.9175 261.914 55.055 261.914 56.6475L271.953 56.42Z" fill="white"/>
<path d="M109.739 20.7024C109.739 23.4324 108.827 25.4799 107.23 26.8449C105.632 27.9824 103.579 28.6649 100.841 28.6649C99.4725 28.6649 98.3318 28.6649 97.4192 28.4374V13.8774C98.788 13.6499 100.157 13.6499 101.526 13.6499C104.035 13.6499 106.089 14.1049 107.458 15.2424C109.055 16.6074 109.739 18.4274 109.739 20.7024ZM107.23 20.7024C107.23 18.8824 106.773 17.7449 105.861 16.6074C104.948 15.6974 103.579 15.2424 101.754 15.2424C101.07 15.2424 100.385 15.2424 99.9288 15.4699V26.6174C100.157 26.6174 100.841 26.6174 101.526 26.6174C103.351 26.6174 104.72 26.1624 105.861 25.0249C107.001 23.8874 107.23 22.7499 107.23 20.7024Z" fill="white"/>
<path d="M123.2 22.9774C123.2 24.5699 122.744 25.9349 121.831 27.0724C120.918 28.2099 119.549 28.6649 117.952 28.6649C116.355 28.6649 115.215 28.2099 114.074 27.0724C113.161 25.9349 112.705 24.7974 112.705 23.2049C112.705 21.6124 113.161 20.2474 114.074 19.1099C114.986 17.9724 116.355 17.5174 117.952 17.5174C119.549 17.5174 120.69 17.9724 121.831 19.1099C122.744 20.2474 123.2 21.3849 123.2 22.9774ZM120.69 23.2049C120.69 22.2949 120.462 21.3849 120.006 20.7024C119.549 19.7924 118.865 19.3374 117.952 19.3374C117.04 19.3374 116.355 19.7924 115.671 20.7024C115.215 21.3849 114.986 22.2949 114.986 23.2049C114.986 24.1149 115.215 25.0249 115.671 25.7074C116.127 26.6174 116.812 27.0724 117.952 27.0724C118.865 27.0724 119.549 26.6174 120.006 25.7074C120.462 25.0249 120.69 24.1149 120.69 23.2049Z" fill="white"/>
<path d="M141.224 17.7449L137.802 28.4374H135.52L134.151 23.8874C133.695 22.7499 133.467 21.6124 133.239 20.4749C133.01 21.6124 132.782 22.7499 132.326 23.8874L130.957 28.4374H128.676L125.482 17.7449H127.991L129.132 22.7499C129.36 23.8874 129.588 25.0249 129.816 26.1624C130.044 25.2524 130.273 24.1149 130.729 22.7499L132.326 17.7449H134.379L135.748 22.7499C136.204 23.8874 136.433 25.2524 136.661 26.3899C136.889 25.2524 137.117 24.1149 137.345 22.7499L138.714 17.7449H141.224Z" fill="white"/>
<path d="M153.544 28.4374H151.262V22.2949C151.262 20.4749 150.578 19.5649 149.209 19.5649C148.524 19.5649 147.84 19.7924 147.384 20.2474C146.927 20.7024 146.699 21.3849 146.699 22.0674V28.4374H144.418V20.7024C144.418 19.7924 144.418 18.6549 144.418 17.7449H146.243V19.3374C146.471 18.8824 146.927 18.4274 147.384 17.9724C148.068 17.5174 148.752 17.2899 149.437 17.2899C150.349 17.2899 151.262 17.5174 151.947 18.1999C152.859 18.8824 153.087 20.2474 153.087 21.8399V28.4374H153.544Z" fill="white"/>
<path d="M160.16 28.4374H157.878V12.9674H160.16V28.4374Z" fill="white"/>
<path d="M174.305 22.9774C174.305 24.5699 173.849 25.9349 172.936 27.0724C172.024 28.2099 170.655 28.6649 169.058 28.6649C167.461 28.6649 166.32 28.2099 165.179 27.0724C164.267 25.9349 163.81 24.7974 163.81 23.2049C163.81 21.6124 164.267 20.2474 165.179 19.1099C166.092 17.9724 167.461 17.5174 169.058 17.5174C170.655 17.5174 171.795 17.9724 172.936 19.1099C173.849 20.2474 174.305 21.3849 174.305 22.9774ZM171.795 23.2049C171.795 22.2949 171.567 21.3849 171.111 20.7024C170.655 19.7924 169.97 19.3374 169.058 19.3374C168.145 19.3374 167.461 19.7924 166.776 20.7024C166.32 21.3849 166.092 22.2949 166.092 23.2049C166.092 24.1149 166.32 25.0249 166.776 25.7074C167.232 26.6174 167.917 27.0724 169.058 27.0724C169.97 27.0724 170.655 26.6174 171.111 25.7074C171.567 25.0249 171.795 24.1149 171.795 23.2049Z" fill="white"/>
<path d="M185.713 28.4374H183.659L183.431 27.2999C182.747 28.2099 181.606 28.6649 180.237 28.6649C179.324 28.6649 178.412 28.4374 177.727 27.7549C177.271 27.0724 176.815 26.3899 176.815 25.4799C176.815 24.1149 177.271 23.2049 178.412 22.5224C179.553 21.8399 181.15 21.3849 182.975 21.6124V21.3849C182.975 20.0199 182.29 19.3374 180.693 19.3374C179.553 19.3374 178.64 19.5649 177.956 20.0199L177.727 18.4274C178.64 17.7449 180.009 17.5174 181.378 17.5174C184.116 17.5174 185.484 18.8824 185.484 21.8399V25.7074C185.713 27.0724 185.713 27.9824 185.713 28.4374ZM183.203 24.7974V23.2049C180.465 23.2049 179.324 23.8874 179.324 25.2524C179.324 25.7074 179.553 26.1624 179.781 26.6174C180.009 26.8449 180.465 27.0724 180.921 27.0724C181.378 27.0724 181.834 26.8449 182.29 26.6174C182.747 26.3899 182.975 25.9349 183.203 25.2524C183.203 25.0249 183.203 25.0249 183.203 24.7974Z" fill="white"/>
<path d="M199.401 28.4374H197.348V26.6174C196.664 27.9824 195.523 28.6649 193.926 28.6649C192.557 28.6649 191.644 28.2099 190.732 27.0724C189.819 25.9349 189.363 24.7974 189.363 23.2049C189.363 21.3849 189.819 20.0199 190.732 18.8824C191.644 17.9724 192.785 17.2899 194.154 17.2899C195.523 17.2899 196.664 17.7449 197.12 18.6549V12.9674H199.401V25.7074C199.173 26.6174 199.401 27.5274 199.401 28.4374ZM196.892 23.8874V22.0674C196.892 21.8399 196.892 21.6124 196.892 21.3849C196.664 20.7024 196.436 20.2474 195.979 20.0199C195.523 19.5649 195.067 19.3374 194.382 19.3374C193.47 19.3374 192.785 19.7924 192.329 20.4749C191.873 21.1574 191.644 22.0674 191.644 23.2049C191.644 24.3424 191.873 25.0249 192.329 25.7074C192.785 26.3899 193.47 26.8449 194.382 26.8449C195.067 26.8449 195.751 26.6174 196.207 25.9349C196.664 25.4799 196.892 24.7974 196.892 23.8874Z" fill="white"/>
<path d="M219.707 22.9774C219.707 24.5699 219.25 25.9349 218.338 27.0724C217.425 28.2099 216.056 28.6649 214.459 28.6649C212.862 28.6649 211.721 28.2099 210.581 27.0724C209.668 25.9349 209.212 24.7974 209.212 23.2049C209.212 21.6124 209.668 20.2474 210.581 19.1099C211.493 17.9724 212.862 17.5174 214.459 17.5174C216.056 17.5174 217.197 17.9724 218.338 19.1099C219.25 20.2474 219.707 21.3849 219.707 22.9774ZM217.425 23.2049C217.425 22.2949 217.197 21.3849 216.741 20.7024C216.284 19.7924 215.6 19.3374 214.687 19.3374C213.775 19.3374 213.09 19.7924 212.406 20.7024C211.95 21.3849 211.721 22.2949 211.721 23.2049C211.721 24.1149 211.95 25.0249 212.406 25.7074C212.862 26.6174 213.547 27.0724 214.687 27.0724C215.6 27.0724 216.284 26.6174 216.741 25.7074C217.197 25.0249 217.425 24.1149 217.425 23.2049Z" fill="white"/>
<path d="M232.711 28.4374H230.429V22.2949C230.429 20.4749 229.745 19.5649 228.148 19.5649C227.463 19.5649 226.779 19.7924 226.323 20.2474C225.866 20.7024 225.638 21.3849 225.638 22.0674V28.4374H223.357V20.7024C223.357 19.7924 223.357 18.6549 223.357 17.7449H225.41V19.3374C225.638 18.8824 226.095 18.4274 226.551 17.9724C227.235 17.5174 227.92 17.2899 228.832 17.2899C229.745 17.2899 230.658 17.5174 231.342 18.1999C232.255 18.8824 232.483 20.2474 232.483 21.8399V28.4374H232.711Z" fill="white"/>
<path d="M248.681 19.5649H245.944V24.7974C245.944 26.1624 246.4 26.8449 247.313 26.8449C247.769 26.8449 247.997 26.8449 248.453 26.8449V28.6649C247.997 28.8924 247.313 28.8924 246.628 28.8924C245.715 28.8924 245.031 28.6649 244.347 27.9824C243.89 27.2999 243.662 26.3899 243.662 25.0249V19.5649H242.065V17.7449H243.662V15.9249L245.944 15.2424V17.9724H248.681V19.5649Z" fill="white"/>
<path d="M261.458 28.4374H259.176V22.2949C259.176 20.4749 258.492 19.3374 257.123 19.3374C255.982 19.3374 255.298 19.7924 254.841 20.9299C254.841 21.1574 254.841 21.3849 254.841 21.8399V28.2099H252.56V12.9674H254.841V19.3374C255.526 18.1999 256.667 17.5174 258.035 17.5174C258.948 17.5174 259.861 17.7449 260.545 18.4274C261.458 19.3374 261.686 20.4749 261.686 22.0674C261.458 22.0674 261.458 28.4374 261.458 28.4374Z" fill="white"/>
<path d="M274.462 22.7499C274.462 23.2049 274.462 23.4324 274.462 23.8874H267.161C267.161 25.0249 267.618 25.7074 268.302 26.3899C268.987 26.8449 269.671 27.0724 270.584 27.0724C271.724 27.0724 272.637 26.8449 273.55 26.6174L274.006 28.2099C273.093 28.6649 271.724 28.8924 270.355 28.8924C268.758 28.8924 267.39 28.4374 266.477 27.5274C265.564 26.6174 265.108 25.2524 265.108 23.6599C265.108 22.0674 265.564 20.7024 266.477 19.5649C267.39 18.4274 268.758 17.7449 270.127 17.7449C271.724 17.7449 272.865 18.4274 273.55 19.5649C274.234 20.2474 274.462 21.3849 274.462 22.7499ZM272.181 22.0674C272.181 21.3849 271.952 20.7024 271.724 20.2474C271.268 19.5649 270.584 19.3374 269.899 19.3374C269.215 19.3374 268.53 19.5649 268.074 20.2474C267.618 20.7024 267.39 21.3849 267.39 22.0674C267.161 22.0674 272.181 22.0674 272.181 22.0674Z" fill="white"/>
</svg>
